<svg xmlns="http://www.w3.org/2000/svg" xmlns:xlink="http://www.w3.org/1999/xlink" width="111" height="55" viewBox="0 0 111 55">
    <defs>
        <path id="a" d="M0 .007h98.258v54.788H0z"/>
        <path id="c" d="M.03.11h12.9v13.912H.03z"/>
    </defs>
    <g fill="none" fill-rule="evenodd">
        <g transform="translate(0 .198)">
            <mask id="b" fill="#fff">
                <use xlink:href="#a"/>
            </mask>
            <path fill="#000" d="M76.583 34.939c-1.96 0-3.377-1.426-3.377-5.271 0-5.065 2.495-13.647 7.09-13.647 2.299 0 3.518 1.895 3.518 5.14 0 6.078-2.973 13.778-7.231 13.778zm-38.052 1.82c-1.426 0-2.842-.882-2.842-4.324 0-5.872 3.508-16.414 8.038-16.414 2.026 0 3.039 1.557 3.039 4.868 0 5.533-3.583 15.87-8.235 15.87zM87.05 10.89l-1.623 5.881c-.806-3.451-3.986-6.622-8.713-6.622-7.353 0-12.341 5.54-14.888 15.394-1.26 4.878-3.22 11.807-6.006 11.087-1.46-.378-.744-3.042-.406-4.327l5.533-21.413H49.74l-1.622 5.881c-.948-3.451-3.588-6.622-8.178-6.622-9.581 0-13.508 9.703-15.073 15.017-1.36 4.616-4.413 11.05-9.67 11.05-3.737 0-2.363-4.794-2.092-5.742l3.583-13.44h9.126l1.352-5.263h-9.063L21.212.007l-7.53.89C11.777 7.738 8.767 11.77 1.353 11.77L0 17.035h5.544L2.167 29.46c-.543 2.028-.881 4.258-.881 5.673 0 6.015 4.455 8.442 9.455 8.442 9.857 0 13.158-10.457 13.158-10.457s-.01 10.458 10.102 10.458c8.28 0 11.414-8.441 11.414-8.441s-1.717 8.441 6.754 8.441c4.456 0 8.26-3.019 10.347-8.421 1.478 3.565 4.537 5.992 9.405 5.992 4.324 0 7.7-1.623 9.726-4.727 0 0-2.453 9.62-5.196 12.362-3.289 3.289-7.906 2.026-8.713 1.754.807-.807 1.547-2.026 1.547-3.649 0-2.701-1.819-5.065-5.261-5.065-3.517 0-5.478 2.636-5.478 5.337 0 6.753 9.53 7.635 13.178 7.635 7.898 0 16.883-2.504 19.716-14.66l6.818-29.245H87.05z" mask="url(#b)"/>
        </g>
        <g transform="translate(97.892 30.16)">
            <mask id="d" fill="#fff">
                <use xlink:href="#c"/>
            </mask>
            <path fill="#000" d="M7.053.11C3.203.11.03 3.485.03 7.808c0 3.444 2.363 6.213 5.875 6.213 3.85 0 7.024-3.377 7.024-7.699C12.93 2.88 10.565.11 7.053.11" mask="url(#d)"/>
        </g>
    </g>
</svg>
