<svg xmlns="http://www.w3.org/2000/svg" xmlns:xlink="http://www.w3.org/1999/xlink" width="165" height="24" viewBox="0 0 165 24">
    <defs>
        <path id="a" d="M0 .053h8.447v8.373H0z"/>
        <path id="c" d="M.182.03h13.465v18.088H.182z"/>
    </defs>
    <g fill="none" fill-rule="evenodd">
        <path fill="#000" d="M9.601 2.694a8.982 8.982 0 0 1 8.446 8.374c-2.334-.121-5.793-.7-6.748-1.65-.955-.952-1.557-4.398-1.698-6.724M18.017 12.27a8.978 8.978 0 0 1-8.374 8.445c.121-2.334.701-5.792 1.652-6.747.95-.955 4.396-1.557 6.722-1.698"/>
        <g transform="translate(0 12.28)">
            <mask id="b" fill="#fff">
                <use xlink:href="#a"/>
            </mask>
            <path fill="#000" d="M8.447 8.426A8.981 8.981 0 0 1 0 .053c2.336.122 5.794.7 6.748 1.651.955.95 1.557 4.396 1.699 6.722" mask="url(#b)"/>
        </g>
        <path fill="#000" d="M.028 11.138a8.98 8.98 0 0 1 8.374-8.446C8.279 5.027 7.7 8.485 6.75 9.44c-.95.953-4.396 1.557-6.722 1.698M60.197 18.42V5.776h-1.135l-1.965.79V18.42zM44.446 18.42V5.776H43.31l-1.964.79V18.42zM68.53 17.23l.001 1.19h3.093l.003-9.24c0-2.584-1.83-3.396-4.485-3.396-1.958 0-4.94.864-5.138 2.732-.104.983.252 2.098 1.487 2.098 1.766 0 1.635-1.743 1.626-2-.007-.22-.016-1.344 1.562-1.339 1.34.004 1.657.91 1.725 1.3.07.407.133.93.127 1.618-.456.103-3.442.841-4.917 1.837-1.63 1.1-2.066 2.142-2.066 3.532 0 1.81 1.829 3.118 3.416 3.118 1.918 0 2.692-.575 3.567-1.45m-3.907-2.465c0-1.42 3.124-2.849 3.907-3.006v3.652c-.584.584-1.497 1.088-2.199 1.088-.67 0-1.708-.327-1.708-1.734M35.816 13.945L32.13 5.458l-3.664 8.54-3.456-7.956-3.33.002 5.452 12.574 1.231-.001 3.026-7.068 3.02 7.064 1.3-.001L40.78 6.03l-1.944.001zM89.102 10.099l.005 8.32h3.077v-8.315c0-.858-.08-1.402-.28-1.881-.99-2.381-2.57-2.485-3.47-2.485-2.197 0-3.92 1.68-4.295 2.028-.261-.404-1.249-2.038-3.353-2.038-1.747 0-3.77 1.584-4.09 1.905V5.966h-3.091V18.42h3.091V9.456s1.344-1.397 2.826-1.397c1.243 0 1.859 1.16 1.859 2.045v8.316h3.069V9.456s1.272-1.398 2.708-1.398c1.318 0 1.943 1.168 1.944 2.04M99.657 7.769c.513.297 1.128 1.047 1.595 1.858l1.471-1.282c-.444-.691-1.257-1.681-2.522-2.247-1.328-.593-3.558-.28-4.67.316-.75.401-1.776 1.53-1.776 2.906 0 1.081.43 2.088 1.315 2.845.725.619 3.186 1.727 3.848 2.07 1.587.823 1.353 2.826-.314 2.826-1.537 0-2.91-1.107-3.687-2.329l-1.541 1.364c.41.651 1.416 1.6 2.164 2.003.662.358 1.553.598 2.93.598 1.317 0 2.779-.487 3.525-1.226.594-.588 1.08-1.313 1.074-2.78-.006-1.514-1.385-2.715-2.608-3.384-1.257-.687-3.069-.985-4-2.155-.409-.513-.253-1.354.563-1.656.743-.275 1.842-.185 2.633.273M44.591 1.585c.002.854-.762 1.548-1.706 1.55-.944.001-1.71-.69-1.713-1.543-.001-.854.763-1.547 1.707-1.55.944-.001 1.71.69 1.712 1.543M60.343 1.555c.001.853-.762 1.547-1.706 1.549-.944.002-1.711-.689-1.713-1.543-.001-.854.762-1.547 1.707-1.55.944 0 1.71.69 1.712 1.544M54.957 0h-1.135l-1.964.79v17.63h3.1zM49.702 0h-1.136l-1.964.79v17.63h3.1zM109.326 12.605a6.81 6.81 0 0 0 2.033 4.374c1.481 1.43 3.617 2.076 5.6 1.442 1.565-.5 2.807-1.67 3.674-3.037.328-.518.61-1.068.831-1.64l-1.357-.598c-.152.296-1.186 2.167-2.467 2.662-1.387.536-3.039.292-4.045-.825-.835-.926-1.17-2.331-1.22-3.551h8.7c0-1.036-.098-2.045-.849-3.17a5.666 5.666 0 0 0-5.46-2.474c-2.103.268-4.1 1.711-4.934 3.678a6.726 6.726 0 0 0-.506 3.14m5.578-5.212c.419-.014.85.09 1.255.343.616.384 1.235 1.237 1.235 1.996h-4.975c.16-1.29 1.278-2.3 2.485-2.34M107.85 0h-1.135l-1.964.79v17.63h3.1zM129.068 17.23v1.189h3.093l.004-9.239c0-2.584-1.83-3.396-4.485-3.396-1.959 0-4.94.864-5.139 2.732-.104.983.253 2.098 1.487 2.098 1.767 0 1.636-1.744 1.627-2-.007-.22-.017-1.344 1.561-1.34 1.341.005 1.657.91 1.725 1.3.071.408.134.932.128 1.619-.457.102-3.443.841-4.917 1.836-1.63 1.1-2.067 2.143-2.067 3.533 0 1.809 1.83 3.118 3.417 3.118 1.918 0 2.692-.575 3.566-1.45m-3.907-2.465c0-1.42 3.124-2.85 3.908-3.006v3.651c-.584.585-1.498 1.09-2.2 1.09-.67 0-1.708-.328-1.708-1.735"/>
        <g transform="translate(151.059 5.691)">
            <mask id="d" fill="#fff">
                <use xlink:href="#c"/>
            </mask>
            <path fill="#000" d="M11.71 2.608h1.93V.87h-3.588C8.87.19 7.956.03 6.532.03 4.07.006 1.078 1.823 1.078 4.408c0 1.942.61 2.81 2.058 3.653 0 0-1.883 1.31-1.883 2.586 0 .813.513 1.311 1.158 1.515 0 0-2.23 1.684-2.23 3.002 0 1.189.62 2.954 6.486 2.954 5.997 0 6.979-3.35 6.979-4.866 0-1.436-.73-2.732-3.384-3.012-1.913-.2-3.815-.161-4.896-.161-.901 0-1.046-.164-1.128-.435-.086-.285.34-.729.52-.924 0 0 1.83.573 3.917-.108 1.928-.629 2.95-1.632 3.3-2.715.526-1.63-.266-3.289-.266-3.289m-4.94 4.95h-.006c-2.058-.04-2.298-2.328-2.298-3.63 0-1.488.828-2.525 1.82-2.525 1.482 0 2.538 1.69 2.583 3.517.04 1.624-.807 2.639-2.098 2.639m-3.573 6.62c0-.675.548-1.327.783-1.53 0 0 1.478.274 3.96.274 2.763 0 3.874.165 3.874 1.17 0 .962-1.972 1.71-4.16 1.71-2.713 0-4.457-.506-4.457-1.624" mask="url(#d)"/>
        </g>
        <path fill="#000" d="M139.737 15.668s-.532.792-1.25.792c-.675 0-.864-.505-.864-.902l.002-7.853h2.611V5.961h-2.611V1.967h-1.698a4.348 4.348 0 0 1-3.416 3.996v1.742h2.031l.002 7.645c0 2.517 1.082 3.35 3.083 3.35 1.69 0 2.908-1.517 3.238-2.27l-1.128-.762zM148.189 17.23v1.19h3.093l.003-9.24c0-2.584-1.83-3.395-4.485-3.395-1.958 0-4.94.863-5.138 2.731-.104.984.252 2.098 1.487 2.098 1.766 0 1.635-1.743 1.626-2-.007-.22-.016-1.343 1.562-1.339 1.34.005 1.657.91 1.725 1.3.07.407.133.931.127 1.619-.456.102-3.442.84-4.917 1.836-1.63 1.1-2.066 2.143-2.066 3.532 0 1.81 1.829 3.118 3.416 3.118 1.918 0 2.692-.574 3.567-1.45m-3.907-2.465c0-1.42 3.124-2.849 3.907-3.005v3.65c-.584.585-1.497 1.09-2.199 1.09-.67 0-1.708-.327-1.708-1.735"/>
    </g>
</svg>
